<svg xmlns="http://www.w3.org/2000/svg" width="10.286" height="8.094" viewBox="0 0 10.286 8.094" fill="#d4d8de">
  <g id="Group_6114" data-name="Group 6114" transform="translate(-798.928 -306.027)">
    <path id="Path_3991" data-name="Path 3991" d="M310.949,258.105l4.161-3.773c0,.055.005.088.005.121,0,.652,0,1.3,0,1.955,0,.084.023.11.108.111a5.49,5.49,0,0,1,2.334.534,5.347,5.347,0,0,1,1.472,1.043,6.486,6.486,0,0,1,.489.52,8.868,8.868,0,0,1,1.707,3.679.328.328,0,0,1,.009.13c-.015-.017-.031-.033-.044-.051a7.459,7.459,0,0,0-1.227-1.34,5.689,5.689,0,0,0-2.485-1.173,10.768,10.768,0,0,0-2.231-.221c-.032,0-.065,0-.1,0a.15.15,0,0,0-.034.015v2.219Z" transform="translate(487.979 51.695)"/>
  </g>
</svg>
