<svg xmlns="http://www.w3.org/2000/svg" width="17.177" height="16.497" viewBox="0 0 17.177 16.497" fill="#b1b8c3" stroke="#b1b8c3">
  <g id="Group_5843" data-name="Group 5843" transform="translate(8104.716 4511.611)">
    <path id="Path_3879" data-name="Path 3879" d="M2821.864,10704.52a3.459,3.459,0,0,0-1.724,1.32,7.6,7.6,0,0,0-.968,4.358,7.308,7.308,0,0,1-1.568,4.72l-.6.6h4.24v.08a2.42,2.42,0,0,0,4.839,0v-.08h4.192l-.6-.6a7.372,7.372,0,0,1-1.52-4.72,7.6,7.6,0,0,0-.968-4.358,3.459,3.459,0,0,0-1.724-1.32,3.909,3.909,0,0,0-.376-1.72,1.5,1.5,0,0,0-.584-.6,1.845,1.845,0,0,0-1.672,0,1.5,1.5,0,0,0-.584.6A3.9,3.9,0,0,0,2821.864,10704.52Zm.716-.159a8.663,8.663,0,0,1,1.08-.081,8.787,8.787,0,0,1,1.08.081,2.68,2.68,0,0,0-.276-1.2,1.04,1.04,0,0,0-.316-.361,1.527,1.527,0,0,0-.976,0,1,1,0,0,0-.316.361A2.684,2.684,0,0,0,2822.579,10704.36Zm2.791,11.157h-3.423v.08a1.712,1.712,0,0,0,3.423,0Zm-4.651-9.278a7.022,7.022,0,0,0-.84,3.959,8.415,8.415,0,0,1-1.3,4.6h10.114a8.548,8.548,0,0,1-1.256-4.6,7.024,7.024,0,0,0-.84-3.959,4.015,4.015,0,0,0-5.879,0Z" transform="translate(-10921.109 -15213.361)" stroke-width="0.5" fill-rule="evenodd"/>
  </g>
</svg>
