<svg id="Group_6437" data-name="Group 6437" xmlns="http://www.w3.org/2000/svg" width="9.267" height="13.045" viewBox="0 0 9.267 13.045">
  <g id="Group_2722" data-name="Group 2722" transform="translate(0 0)">
    <path id="Path_1015" data-name="Path 1015" d="M969.221-698.734c.552.4,1.351,1.619,1.44,4.291a9.173,9.173,0,0,0,1.015,2.053,2.869,2.869,0,0,1,.358,1.037.713.713,0,0,1-.483.774,16.588,16.588,0,0,1-2.889.688,9.733,9.733,0,0,1-2.946-.065,18.6,18.6,0,0,1-2.387-.6.733.733,0,0,1-.547-.878,3.643,3.643,0,0,1,.52-1.26q.352-.648.7-1.3a2.482,2.482,0,0,0,.168-.983c.049-.546.048-1.1.15-1.635a3.4,3.4,0,0,1,2.232-2.639,2.374,2.374,0,0,1,2.011.128C968.784-699.007,968.993-698.868,969.221-698.734Z" transform="translate(-962.771 700.813)" fill="#88909d"/>
    <path id="Path_1017" data-name="Path 1017" d="M977.924-655.7c.048-.172.091-.345.15-.514a.152.152,0,0,1,.123-.075,11.892,11.892,0,0,0,1.976,0,.148.148,0,0,1,.118.067,1.182,1.182,0,0,1-.092,1.227,1.159,1.159,0,0,1-1.108.531A1.265,1.265,0,0,1,977.924-655.7Zm1.263.441a.426.426,0,0,0,.426-.44.428.428,0,0,0-.434-.42.428.428,0,0,0-.427.441A.427.427,0,0,0,979.187-655.255Z" transform="translate(-974.55 667.501)" fill="#88909d"/>
    <path id="Path_1018" data-name="Path 1018" d="M981.177-703.745c0,.051,0,.091-.009.13-.037.263-.066.282-.326.244a3.008,3.008,0,0,0-1.076.022c-.114.025-.156-.009-.19-.108a.831.831,0,0,1,.219-.883.782.782,0,0,1,.87-.156A.789.789,0,0,1,981.177-703.745Z" transform="translate(-975.722 704.564)" fill="#88909d"/>
  </g>
</svg>
