<svg id="Group_6936" data-name="Group 6936" xmlns="http://www.w3.org/2000/svg" xmlns:xlink="http://www.w3.org/1999/xlink" width="14.131" height="13.205" viewBox="0 0 14.131 13.205">
  <defs>
    <clipPath id="clip-path">
      <rect id="Rectangle_7771" data-name="Rectangle 7771" width="14.131" height="13.205" fill="#f2e871"/>
    </clipPath>
  </defs>
  <g id="Group_6935" data-name="Group 6935" clip-path="url(#clip-path)">
    <path id="Path_4188" data-name="Path 4188" d="M4.516,1.493a2.927,2.927,0,0,1,5.1,0l4.127,7.3a2.95,2.95,0,0,1-2.552,4.408H2.937A2.95,2.95,0,0,1,.386,8.8Z" transform="translate(0 0)" fill="#f9e259"/>
    <path id="Path_4189" data-name="Path 4189" d="M102.295,85.564a.756.756,0,1,1,.216.571.789.789,0,0,1-.216-.571m1.555-4.26q0,.195-.008.562t-.034.795q-.025.427-.068.854t-.1.74a.418.418,0,0,1-.1.051,1.062,1.062,0,0,1-.144.042,1.394,1.394,0,0,1-.152.025,1.233,1.233,0,0,1-.135.008.976.976,0,0,1-.41-.076.378.378,0,0,1-.207-.3,4.63,4.63,0,0,1-.072-.592q-.03-.4-.055-.862t-.038-.921q-.013-.456-.013-.778a1.635,1.635,0,0,1,.385-.148,1.724,1.724,0,0,1,.427-.055.809.809,0,0,1,.537.161.606.606,0,0,1,.19.49" transform="translate(-96.002 -75.691)" fill="#101215"/>
  </g>
</svg>
