<svg xmlns="http://www.w3.org/2000/svg" width="10.427" height="9.625" viewBox="0 0 10.427 9.625">
  <g id="Group_6316" data-name="Group 6316" transform="translate(-1696.075 -42.635)">
    <path id="Path_3849" data-name="Path 3849" d="M51.535,240.632c0-.558.006-1.116-.006-1.674a.489.489,0,0,0-.126-.3q-1.713-1.841-3.438-3.673a.607.607,0,0,1,.067-.971,2.668,2.668,0,0,1,1.056-.473,15.364,15.364,0,0,1,3.933-.413,14.721,14.721,0,0,1,3.825.416,3.906,3.906,0,0,1,.889.355.652.652,0,0,1,.183,1.143q-1.709,1.82-3.41,3.645a.428.428,0,0,0-.1.271c-.01.809-.015,1.618-.007,2.426a.468.468,0,0,1-.339.486c-.631.262-1.251.543-1.878.813-.384.166-.645.023-.647-.358C51.533,241.76,51.535,241.2,51.535,240.632Zm-1.916-4.979c.049.058.083.1.122.145.792.846,1.582,1.695,2.381,2.536a.667.667,0,0,1,.2.5c-.007.934,0,1.867,0,2.8v.227c.4-.174.768-.338,1.14-.491a.215.215,0,0,0,.16-.229c0-.783-.01-1.567.008-2.35a.691.691,0,0,1,.174-.422c.787-.858,1.589-1.706,2.386-2.557.042-.044.081-.09.141-.157A20.316,20.316,0,0,1,49.619,235.653Zm7.766-1.088V234.5a2.624,2.624,0,0,0-.465-.209,15.474,15.474,0,0,0-1.574-.333,17.955,17.955,0,0,0-4.77,0,15.952,15.952,0,0,0-1.651.365,2.02,2.02,0,0,0-.394.2,3.227,3.227,0,0,0,1.24.445,17.86,17.86,0,0,0,4.359.243,11.021,11.021,0,0,0,2.645-.4C56.987,234.749,57.182,234.648,57.385,234.565Z" transform="translate(1648.321 -190.491)"/>
  </g>
</svg>
