<svg xmlns="http://www.w3.org/2000/svg" viewBox="48 185.57 347.65 140.88">
<path transform="matrix(1.2623 0 0 1.2623 200.62 248.02)" d="m9.46-13.44q0 6 4.84 6 1.11 0 2.07-0.29t1.63-0.67v-11.42q-0.53-0.1-1.25-0.17t-1.68-0.07q-2.83 0-4.22 1.87t-1.39 4.75zm15.69-10.94v21.21q0 6.19-3.14 9.19-3.15 3-9.72 3-2.31 0-4.61-0.4-2.3-0.41-4.27-1.08l1.25-6q1.68 0.67 3.52 1.05 1.85 0.39 4.2 0.39 3.08 0 4.35-1.35 1.27-1.34 1.27-3.45v-0.92q-1.15 0.53-2.38 0.8-1.22 0.26-2.66 0.26-5.23 0-8.02-3.1-2.78-3.09-2.78-8.66 0-2.78 0.86-5.06 0.87-2.28 2.52-3.92 1.66-1.63 4.06-2.52 2.4-0.88 5.42-0.88 1.3 0 2.67 0.12t2.71 0.31 2.57 0.45q1.22 0.27 2.18 0.56zm23.142-0.44-1.2 5.91q-0.96-0.24-2.26-0.51-1.3-0.26-2.78-0.26-0.68 0-1.61 0.12-0.94 0.12-1.42 0.26v19.3h-7.15v-23.9q1.92-0.68 4.54-1.28 2.61-0.6 5.83-0.6 0.57 0 1.39 0.08 0.82 0.07 1.63 0.19 0.82 0.12 1.63 0.29 0.82 0.16 1.4 0.4zm13.006 19.83q1.05 0 2.01-0.05 0.96-0.05 1.54-0.14v-5.43q-0.43-0.09-1.3-0.19-0.86-0.1-1.58-0.1-1.01 0-1.9 0.12-0.88 0.12-1.56 0.46-0.67 0.34-1.05 0.91-0.39 0.58-0.39 1.44 0 1.68 1.13 2.33 1.13 0.65 3.1 0.65zm-0.58-20.93q3.17 0 5.28 0.72 2.11 0.72 3.39 2.06 1.27 1.35 1.8 3.27 0.52 1.92 0.52 4.27v14.88q-1.53 0.34-4.27 0.79-2.73 0.46-6.62 0.46-2.45 0-4.44-0.43-1.99-0.44-3.43-1.42-1.44-0.98-2.21-2.57-0.77-1.58-0.77-3.89 0-2.2 0.89-3.74 0.89-1.54 2.37-2.45 1.49-0.91 3.41-1.32 1.92-0.41 3.99-0.41 1.39 0 2.47 0.12t1.75 0.32v-0.68q0-1.82-1.1-2.92-1.11-1.11-3.84-1.11-1.83 0-3.6 0.27-1.78 0.26-3.08 0.74l-0.91-5.76q0.63-0.19 1.56-0.41 0.94-0.21 2.04-0.38 1.11-0.17 2.33-0.29 1.22-0.12 2.47-0.12zm33.654 13.1q0-6.91-5.09-6.91-1.11 0-2.19 0.29t-1.75 0.72v13.01q0.53 0.09 1.35 0.17 0.81 0.07 1.77 0.07 2.93 0 4.42-2.02 1.49-2.01 1.49-5.33zm7.29 0.2q0 3.02-0.89 5.47-0.88 2.45-2.56 4.17-1.68 1.73-4.13 2.67-2.45 0.93-5.57 0.93-1.3 0-2.71-0.12-1.42-0.12-2.79-0.31-1.36-0.19-2.61-0.45-1.25-0.27-2.21-0.56v-35.28l7.15-1.15v12.58q1.2-0.53 2.5-0.82 1.29-0.29 2.78-0.29 2.69 0 4.75 0.94 2.07 0.94 3.46 2.66 1.39 1.73 2.11 4.16 0.72 2.42 0.72 5.4z" fill="#333747" font-family="Ubuntu" font-size="48" font-weight="700" data-fl-textpath="" data-uid="o_ell9n475c_6" font-scale="contain" offset="0" space="preserve" text="grab"/>
<g transform="matrix(.81962 0 0 .81962 8.6583 73.508)" data-uid="o_ell9n475c_7">
<g transform="matrix(1.9532 0 0 1.9532 27.581 125)" fill="#333747" data-uid="o_ell9n475c_8">
<path d="m53.6 15.2c-1-4.4 2.8-8.2 7.2-7.2 2.2 0.5 4 2.3 4.5 4.5 1 4.4-2.8 8.2-7.2 7.2-2.2-0.5-4-2.3-4.5-4.5zm23.6 56.1c-3.4-0.5-6.2 2.4-5.7 5.7 0.3 2.1 2 3.8 4.1 4.1 3.4 0.5 6.2-2.4 5.7-5.7-0.2-2-2-3.8-4.1-4.1zm-27-28.8c-4.1 0-7.5 3.4-7.5 7.5s3.4 7.5 7.5 7.5 7.5-3.4 7.5-7.5-3.4-7.5-7.5-7.5zm30.8 7.5c7.4 8.3 10.5 16.5 7.3 22-1 1.8-2.7 3.2-4.8 4.2 0-1.1-0.3-2.1-0.7-3 1.3-0.7 2.3-1.6 3-2.7 2.5-4.3-0.4-11.1-6.7-18.3-2.9 3-6.3 5.9-10 8.6-0.5 4.7-1.3 9.1-2.4 13 1.1 0.2 2.2 0.4 3.2 0.6-0.2 0.6-0.3 1.2-0.3 1.9 0 0.4 0 0.8 0.1 1.1-1.3-0.2-2.6-0.4-3.9-0.7-3.7 10.6-9.2 17.3-15.6 17.3s-11.9-6.7-15.4-17.3c-1.4 0.3-2.8 0.5-4.1 0.7-1.8 0.2-3.5 0.3-5.1 0.3-6.6 0-11.3-2-13.5-5.7-1.2-2.1-1.5-4.6-1-7.3 0.8 0.6 1.8 1 2.9 1-0.2 1.8 0 3.5 0.8 4.8 2 3.5 7.7 4.9 15.6 3.9 1.2-0.2 2.4-0.4 3.6-0.6-1.1-3.9-1.9-8.3-2.4-13-3.8-2.7-7.1-5.6-10.1-8.6-0.8 0.9-1.6 1.9-2.3 2.8-0.1 0.2-0.2 0.3-0.4 0.5-0.6-0.6-1.3-1-2-1.3-0.1-0.3-0.1-0.4-0.2-0.7 0.9-1.2 1.8-2.3 2.8-3.5-1-1.1-1.9-2.1-2.7-3.2-5.7-7.5-7.3-14.1-4.6-18.8s9.3-6.6 18.6-5.4c1.3 0.2 2.7 0.4 4.1 0.7 3.4-10.6 9-17.3 15.4-17.3 1.6 0 3.2 0.4 4.7 1.3-0.9 0.6-1.6 1.4-2.2 2.2-0.8-0.3-1.7-0.5-2.5-0.5-4.9 0-9.5 5.9-12.5 15 4 1 8.2 2.5 12.5 4.4 4.2-1.9 8.5-3.4 12.5-4.4-0.3-0.8-0.6-1.7-0.9-2.5 1-0.3 1.9-0.8 2.7-1.4 0.4 1 0.8 2.1 1.2 3.2 1.4-0.3 2.8-0.5 4.1-0.7 9.3-1.2 15.9 0.7 18.6 5.4s1.1 11.3-4.6 18.8c-0.9 1-1.8 2.1-2.8 3.2zm-14.5-23.8c1.1 3.9 1.9 8.3 2.4 13 3.8 2.8 7.2 5.7 10.1 8.6 0.8-0.9 1.6-1.9 2.3-2.8 4.8-6.3 6.4-12 4.4-15.5-1.6-2.8-5.5-4.2-10.9-4.2-1.4 0-3 0.1-4.7 0.3-1.2 0.1-2.4 0.3-3.6 0.6zm-12.7 3.9c2 1 4 2.1 6 3.2 2 1.2 3.9 2.3 5.7 3.6-0.5-3.6-1.2-6.9-2-10-3.1 0.8-6.4 1.8-9.7 3.2zm12.2 10.7c-2.4-1.7-5-3.4-7.7-5s-5.4-3-8.1-4.2c-2.7 1.2-5.4 2.7-8.1 4.2-2.7 1.6-5.3 3.2-7.7 4.9-0.3 3-0.4 6-0.4 9.2 0 3.1 0.2 6.2 0.4 9.2 2.4 1.7 5 3.4 7.7 4.9 2.7 1.6 5.4 3 8.1 4.2 2.7-1.2 5.4-2.7 8.1-4.2 2.7-1.6 5.3-3.2 7.7-4.9 0.3-3 0.4-6 0.4-9.2 0.1-3-0.1-6.1-0.4-9.1zm-29.2-14c-0.9 3.1-1.5 6.4-2 10 1.8-1.2 3.8-2.4 5.7-3.6 2-1.1 4-2.2 6-3.2-3.3-1.3-6.5-2.4-9.7-3.2zm-17.7 18.2c0.7 0.9 1.5 1.9 2.3 2.8 2.9-3 6.3-5.9 10.1-8.6 0.5-4.7 1.3-9.1 2.4-13-1.2-0.3-2.4-0.5-3.6-0.6-1.7-0.2-3.2-0.3-4.7-0.3-5.4 0-9.3 1.5-10.9 4.2-2.1 3.5-0.5 9.1 4.4 15.5zm12 11.8c-0.1-2.2-0.2-4.5-0.2-6.8s0.1-4.6 0.2-6.8c-2.8 2.2-5.4 4.5-7.7 6.8 2.3 2.3 4.9 4.6 7.7 6.8zm5.7 16.4c3.1-0.8 6.4-1.9 9.7-3.2-2-1-4-2.1-6-3.2s-3.9-2.3-5.7-3.6c0.5 3.5 1.2 6.9 2 10zm25.9 2.8c-4-1-8.2-2.5-12.5-4.4-4.3 1.9-8.5 3.4-12.5 4.4 3 9.1 7.5 15 12.5 15 4.9 0 9.4-5.9 12.5-15zm2.9-12.9c-1.8 1.2-3.8 2.4-5.7 3.6-2 1.1-4 2.2-6 3.2 3.3 1.3 6.6 2.4 9.7 3.2 0.8-3 1.5-6.4 2-10zm11.3-13.1c-2.2-2.3-4.8-4.6-7.7-6.8 0.1 2.2 0.2 4.5 0.2 6.8s-0.1 4.6-0.2 6.8c2.9-2.2 5.4-4.5 7.7-6.8zm-63.1 13.7c2.7 0.4 5-1.9 4.6-4.6-0.3-1.7-1.6-3.1-3.3-3.3-2.7-0.4-5 1.9-4.6 4.6 0.3 1.7 1.6 3 3.3 3.3z" fill="#333747" data-uid="o_ell9n475c_9"/>
</g>
<path transform="matrix(.16043 0 0 .16043 117.35 214.63)" d="m50 50m-50 0a50 50 0 1 0 100 0 50 50 0 1 0-100 0" fill="#40bf8e" data-cx="50" data-cy="50" data-r="50" data-type="circle" data-uid="o_ell9n475c_10"/>
<path transform="matrix(.082174 0 0 .082174 172.47 269.76)" d="m50 50m-50 0a50 50 0 1 0 100 0 50 50 0 1 0-100 0" fill="#40bf8e" data-cx="50" data-cy="50" data-r="50" data-type="circle" data-uid="o_ell9n475c_11"/>
<path transform="matrix(.11054 0 0 .11054 138.02 146.52)" d="m50 50m-50 0a50 50 0 1 0 100 0 50 50 0 1 0-100 0" fill="#40bf8e" data-cx="50" data-cy="50" data-r="50" data-type="circle" data-uid="o_ell9n475c_12"/>
<path transform="matrix(.061093 0 0 .061093 52.602 238.72)" d="m50 50m-50 0a50 50 0 1 0 100 0 50 50 0 1 0-100 0" fill="#40bf8e" data-cx="50" data-cy="50" data-r="50" data-type="circle" data-uid="o_ell9n475c_13"/>
</g>
<path transform="matrix(1.2623 0 0 1.2623 199.1 306.42)" d="m13.01-4.99q1.05 0 2.01-0.05t1.54-0.14v-5.43q-0.43-0.09-1.3-0.19-0.86-0.1-1.58-0.1-1.01 0-1.9 0.12-0.88 0.12-1.56 0.46-0.67 0.34-1.05 0.91-0.39 0.58-0.39 1.44 0 1.68 1.13 2.33t3.1 0.65zm-0.58-20.93q3.17 0 5.28 0.72t3.39 2.06q1.27 1.35 1.8 3.27 0.52 1.92 0.52 4.27v14.88q-1.53 0.34-4.27 0.79-2.73 0.46-6.62 0.46-2.45 0-4.44-0.43-1.99-0.44-3.43-1.42t-2.21-2.57q-0.77-1.58-0.77-3.89 0-2.2 0.89-3.74t2.37-2.45q1.49-0.91 3.41-1.32t3.99-0.41q1.39 0 2.47 0.12t1.75 0.32v-0.68q0-1.82-1.1-2.92-1.11-1.11-3.84-1.11-1.83 0-3.6 0.27-1.78 0.26-3.08 0.74l-0.91-5.76q0.63-0.19 1.56-0.41 0.94-0.21 2.04-0.38 1.11-0.17 2.33-0.29t2.47-0.12zm45.174 13.49q0-3.31-1.49-5.31-1.49-1.99-4.42-1.99-0.96 0-1.77 0.07-0.82 0.08-1.35 0.17v12.91q0.67 0.44 1.75 0.72 1.08 0.29 2.19 0.29 5.09 0 5.09-6.86zm7.29-0.19q0 2.92-0.72 5.32t-2.11 4.13-3.46 2.69q-2.06 0.96-4.75 0.96-1.49 0-2.78-0.29-1.3-0.29-2.5-0.81v9.5h-7.15v-33.26q0.96-0.29 2.21-0.56 1.25-0.26 2.61-0.45 1.37-0.19 2.79-0.31 1.41-0.12 2.71-0.12 3.12 0 5.57 0.93 2.45 0.94 4.13 2.64 1.68 1.71 2.56 4.15 0.89 2.45 0.89 5.48zm16.612 7.2-1.01 5.9q-3.12-0.05-5.06-0.67-1.95-0.63-3.08-1.75-1.12-1.13-1.53-2.74-0.41-1.61-0.41-3.62v-27.8l7.15-1.15v27.51q0 0.96 0.15 1.72 0.14 0.77 0.55 1.3 0.41 0.53 1.17 0.86 0.77 0.34 2.07 0.44zm14.448 0.43q1.05 0 2.01-0.05t1.54-0.14v-5.43q-0.43-0.09-1.3-0.19-0.86-0.1-1.58-0.1-1.01 0-1.9 0.12-0.88 0.12-1.56 0.46-0.67 0.34-1.05 0.91-0.39 0.58-0.39 1.44 0 1.68 1.13 2.33 1.13 0.65 3.1 0.65zm-0.58-20.93q3.17 0 5.28 0.72 2.11 0.72 3.39 2.06 1.27 1.35 1.8 3.27 0.52 1.92 0.52 4.27v14.88q-1.53 0.34-4.27 0.79-2.73 0.46-6.62 0.46-2.45 0-4.44-0.43-1.99-0.44-3.43-1.42t-2.21-2.57q-0.77-1.58-0.77-3.89 0-2.2 0.89-3.74 0.89-1.54 2.37-2.45 1.49-0.91 3.41-1.32t3.99-0.41q1.39 0 2.47 0.12t1.75 0.32v-0.68q0-1.82-1.1-2.92-1.11-1.11-3.84-1.11-1.83 0-3.6 0.27-1.78 0.26-3.08 0.74l-0.91-5.76q0.63-0.19 1.56-0.41 0.94-0.21 2.04-0.38 1.11-0.17 2.33-0.29t2.47-0.12zm17.234 15.6v-21.22l7.15-1.15v7.44h8.59v5.95h-8.59v8.88q0 2.26 0.79 3.6 0.8 1.35 3.2 1.35 1.15 0 2.37-0.22 1.23-0.21 2.23-0.6l1.01 5.57q-1.29 0.53-2.88 0.91-1.58 0.39-3.89 0.39-2.92 0-4.84-0.8-1.92-0.79-3.08-2.2-1.15-1.42-1.6-3.44-0.46-2.01-0.46-4.46zm19.392-2.11q0-3.36 1.03-5.88t2.71-4.2q1.68-1.68 3.87-2.55 2.18-0.86 4.49-0.86 5.37 0 8.49 3.29t3.12 9.67q0 0.62-0.05 1.37-0.04 0.74-0.09 1.32h-16.23q0.24 2.21 2.07 3.5 1.82 1.3 4.89 1.3 1.97 0 3.87-0.36 1.89-0.36 3.09-0.89l0.96 5.81q-0.57 0.29-1.53 0.57-0.96 0.29-2.14 0.51-1.17 0.21-2.52 0.36-1.34 0.14-2.69 0.14-3.4 0-5.92-1.01-2.52-1-4.18-2.76-1.66-1.75-2.45-4.15t-0.79-5.18zm7.34-2.74h9.46q-0.05-0.91-0.31-1.77-0.27-0.87-0.82-1.54-0.55-0.67-1.39-1.1-0.84-0.44-2.09-0.44-1.2 0-2.06 0.41-0.87 0.41-1.44 1.08-0.58 0.67-0.89 1.56t-0.46 1.8z" fill="#333747" font-family="Ubuntu" font-size="48" font-weight="700" data-fl-textpath="" data-uid="o_ell9n475c_14" font-scale="contain" offset="0" space="preserve" text="a plate"/>
</svg>